# xmcd CD database file
#
# Track frame offsets:
#	150
#	29721
#	64552
#	100049
#	129478
#	170246
#	203587
#	228375
#	242947
#	269517
#	311092
#
# Disc length: 4476 seconds
#
# Revision: 2
# Processed by: cddbd v1.5.2PL0 Copyright (c) Steve Scherf et al.
# Submitted via: CDex 1.51
#
DISCID=9e117a0b
DTITLE=Paul Desmond - Complete Oberlim and College of the Pacific Concerts 1
DYEAR=2005
DGENRE=Jazz
TTITLE0=These Fooloish Things
TTITLE1=The Way You Look Tonight
TTITLE2=Perdido
TTITLE3=Stardust
TTITLE4=How High the Moon
TTITLE5=Lullaby in Rhythm
TTITLE6=I'll Never Smile Again
TTITLE7=Laura
TTITLE8=For All We Know
TTITLE9=All the Things You Are
TTITLE10=I Remember You
EXTD=YEAR: 2005
EXTT0=
EXTT1=
EXTT2=
EXTT3=
EXTT4=
EXTT5=
EXTT6=
EXTT7=
EXTT8=
EXTT9=
EXTT10=
PLAYORDER=
